<?xml version="1.0" standalone="no"?>
<!DOCTYPE svg PUBLIC "-//W3C//DTD SVG 20010904//EN"
 "http://www.w3.org/TR/2001/REC-SVG-20010904/DTD/svg10.dtd">
<svg version="1.0" xmlns="http://www.w3.org/2000/svg"
 width="200.000000pt" height="200.000000pt" viewBox="0 0 200.000000 200.000000"
 preserveAspectRatio="xMidYMid meet">

<g transform="translate(0.000000,200.000000) scale(0.100000,-0.100000)"
fill="#000000" stroke="none">
<path d="M1001 1335 c-2 -5 -3 -13 -2 -17 0 -5 -4 -8 -11 -8 -9 0 -9 -3 0 -12
13 -13 17 -183 6 -212 -3 -9 -14 -16 -23 -16 -18 0 -41 -18 -41 -32 0 -4 34
-8 75 -8 41 0 75 3 75 6 0 11 -27 32 -46 36 -17 3 -19 15 -24 138 -3 74 -7
131 -9 125z"/>
<path d="M1100 1224 c0 -8 5 -12 10 -9 6 4 8 11 5 16 -9 14 -15 11 -15 -7z"/>
<path d="M840 1221 c0 -5 7 -12 16 -15 34 -13 94 -3 94 15 0 5 -25 9 -55 9
-30 0 -55 -4 -55 -9z"/>
<path d="M1054 1098 c-7 -10 38 -20 72 -16 15 2 29 8 31 13 3 11 -96 14 -103
3z"/>
<path d="M904 936 c-3 -14 -3 -29 0 -34 3 -5 -1 -15 -9 -22 -18 -15 -20 -61
-3 -78 20 -20 27 -13 14 14 -13 24 -11 64 3 64 3 0 23 -17 44 -36 39 -36 39
-48 2 -57 -11 -2 -6 -3 10 0 17 2 38 4 48 4 11 0 15 5 10 12 -4 6 -6 26 -4 44
1 18 -2 33 -7 33 -4 0 -6 -14 -4 -32 l5 -31 -29 20 c-51 37 -67 60 -62 93 5
36 -9 41 -18 6z"/>
<path d="M975 950 c3 -5 8 -10 11 -10 2 0 4 5 4 10 0 6 -5 10 -11 10 -5 0 -7
-4 -4 -10z"/>
<path d="M786 881 c-20 -32 -36 -63 -36 -67 0 -5 10 7 21 26 12 19 30 50 41
68 11 17 17 32 15 32 -3 0 -22 -26 -41 -59z"/>
<path d="M459 903 c-3 -16 -1 -44 2 -63 5 -28 7 -23 8 28 1 65 -4 82 -10 35z"/>
<path d="M511 890 c0 -25 3 -51 8 -59 5 -8 7 5 4 35 -6 68 -11 77 -12 24z"/>
<path d="M1170 891 c0 -4 11 -17 25 -29 14 -12 25 -19 25 -16 0 4 -11 17 -25
30 -14 13 -25 20 -25 15z"/>
<path d="M1318 873 c5 -21 7 -23 10 -9 2 10 0 22 -6 28 -6 6 -7 0 -4 -19z"/>
<path d="M1668 873 c5 -21 7 -23 10 -9 2 10 0 22 -6 28 -6 6 -7 0 -4 -19z"/>
<path d="M1120 885 c0 -5 5 -17 10 -25 5 -8 10 -10 10 -5 0 6 -5 17 -10 25 -5
8 -10 11 -10 5z"/>
<path d="M1825 870 c10 -11 20 -20 23 -20 3 0 -3 9 -13 20 -10 11 -20 20 -23
20 -3 0 3 -9 13 -20z"/>
<path d="M1781 864 c0 -11 3 -14 6 -6 3 7 2 16 -1 19 -3 4 -6 -2 -5 -13z"/>
<path d="M1506 853 c-6 -14 -5 -15 5 -6 7 7 10 15 7 18 -3 3 -9 -2 -12 -12z"/>
<path d="M1240 851 c0 -6 4 -13 10 -16 6 -3 7 1 4 9 -7 18 -14 21 -14 7z"/>
<path d="M1550 851 c0 -6 4 -13 10 -16 6 -3 7 1 4 9 -7 18 -14 21 -14 7z"/>
<path d="M1700 851 c0 -6 4 -13 10 -16 6 -3 7 1 4 9 -7 18 -14 21 -14 7z"/>
<path d="M670 820 c0 -5 5 -10 11 -10 5 0 7 5 4 10 -3 6 -8 10 -11 10 -2 0 -4
-4 -4 -10z"/>
<path d="M498 668 c-14 -22 -14 -23 12 -23 22 0 26 4 22 23 -2 12 -8 22 -12
22 -4 0 -14 -10 -22 -22z"/>
<path d="M555 680 c-3 -6 1 -13 9 -16 9 -3 13 -10 10 -15 -3 -5 0 -9 5 -9 17
0 13 20 -6 27 -15 6 -15 7 3 14 16 6 16 8 2 8 -9 1 -20 -4 -23 -9z"/>
<path d="M606 674 c-9 -23 -7 -34 5 -34 5 0 7 5 4 10 -3 6 2 10 12 10 14 0 15
2 4 9 -11 7 -10 10 5 14 17 4 17 5 -2 6 -12 0 -25 -6 -28 -15z"/>
<path d="M660 679 c0 -6 7 -17 15 -25 13 -14 15 -14 15 0 0 9 -6 16 -12 17 -7
0 -4 4 7 9 19 8 19 9 -2 9 -13 1 -23 -4 -23 -10z"/>
<path d="M717 683 c-4 -3 -7 -15 -7 -25 0 -14 6 -19 23 -16 29 4 38 48 9 48
-10 0 -22 -3 -25 -7z m33 -18 c0 -8 -7 -15 -15 -15 -8 0 -15 7 -15 15 0 8 7
15 15 15 8 0 15 -7 15 -15z"/>
<path d="M780 681 c0 -5 -3 -16 -6 -24 -4 -10 1 -15 13 -14 35 3 47 47 13 47
-11 0 -20 -4 -20 -9z m30 -11 c0 -5 -4 -10 -10 -10 -5 0 -10 5 -10 10 0 6 5
10 10 10 6 0 10 -4 10 -10z"/>
<path d="M850 681 c0 -5 6 -12 13 -15 6 -3 3 -4 -7 -3 -10 1 -21 -2 -22 -8 -2
-5 7 -10 21 -10 26 0 29 4 19 29 -7 17 -24 22 -24 7z"/>
<path d="M900 683 c0 -6 -3 -20 -6 -30 -5 -15 -4 -16 5 -3 10 13 12 13 21 0 6
-10 10 -11 10 -2 0 6 5 12 11 12 5 0 7 -5 3 -12 -4 -7 -3 -8 4 -4 7 4 12 17
12 29 0 20 -1 20 -17 5 -15 -16 -17 -16 -29 0 -8 9 -14 12 -14 5z"/>
<path d="M976 675 c-3 -9 -6 -22 -5 -28 0 -7 5 -1 10 12 5 13 8 26 5 28 -2 2
-6 -3 -10 -12z"/>
<path d="M1000 663 c0 -16 4 -23 8 -17 4 6 14 14 22 17 11 4 10 6 -5 7 l-20 1
20 9 c19 8 19 9 -2 9 -19 1 -23 -4 -23 -26z"/>
<path d="M1055 669 c-4 -11 -4 -23 -1 -26 3 -4 6 1 6 11 0 9 5 14 10 11 6 -3
10 -2 10 4 0 20 -19 21 -25 0z"/>
<path d="M1090 671 c-12 -24 -13 -31 -1 -31 5 0 11 11 13 25 6 30 2 32 -12 6z"/>
<path d="M1128 663 c5 -23 7 -25 10 -8 2 11 9 23 16 27 6 5 3 8 -10 8 -18 0
-20 -4 -16 -27z"/>
<path d="M1170 675 c-16 -20 -1 -39 26 -33 27 5 32 48 6 48 -11 0 -25 -7 -32
-15z m40 -10 c0 -8 -9 -15 -20 -15 -20 0 -26 11 -13 23 12 13 33 7 33 -8z"/>
<path d="M1258 668 c-4 -24 -2 -28 16 -28 13 0 16 3 10 8 -7 4 -14 16 -16 27
-3 17 -5 15 -10 -7z"/>
<path d="M1310 681 c0 -5 -3 -16 -6 -25 -3 -9 -1 -16 6 -16 6 0 8 5 5 10 -3 6
2 10 12 10 14 0 15 2 4 9 -11 7 -10 10 5 14 16 4 16 5 -3 6 -13 0 -23 -3 -23
-8z"/>
<path d="M1367 683 c-10 -10 -8 -43 2 -43 5 0 7 9 4 19 -4 14 1 21 19 24 20 4
21 4 2 6 -11 0 -24 -2 -27 -6z"/>
<path d="M1428 668 c-14 -22 -14 -23 12 -23 22 0 26 4 22 23 -2 12 -8 22 -12
22 -4 0 -14 -10 -22 -22z"/>
<path d="M1487 683 c-14 -13 -7 -43 11 -43 12 0 14 2 4 8 -7 5 -10 16 -6 25 6
18 2 22 -9 10z"/>
<path d="M1620 670 c0 -5 14 -10 30 -10 17 0 30 5 30 10 0 6 -13 10 -30 10
-16 0 -30 -4 -30 -10z"/>
<path d="M333 663 c9 -2 25 -2 35 0 9 3 1 5 -18 5 -19 0 -27 -2 -17 -5z"/>
</g>
</svg>
